HIERARCHY
ROOT Hips
{
	OFFSET 0.000000 0.000000 0.000000
	CHANNELS 6 Xposition Yposition Zposition Zrotation Yrotation Xrotation 
	JOINT LHipJoint
	{
		OFFSET 0.000000 0.000000 0.000000
		CHANNELS 3 Zrotation Yrotation Xrotation
		JOINT LeftUpLeg
		{
			OFFSET 1.363060 -1.794630 0.839290
			CHANNELS 3 Zrotation Yrotation Xrotation
			JOINT LeftLeg
			{
				OFFSET 2.448110 -6.726130 0.000000
				CHANNELS 3 Zrotation Yrotation Xrotation
				JOINT LeftFoot
				{
					OFFSET 2.562200 -7.039590 0.000000
					CHANNELS 3 Zrotation Yrotation Xrotation
					JOINT LeftToeBase
					{
						OFFSET 0.157640 -0.433110 2.322550
						CHANNELS 3 Zrotation Yrotation Xrotation
						End Site
						{
							OFFSET 0.000000 0.000000 0.000000
						}
					}
				}
			}
		}
	}
	JOINT RHipJoint
	{
		OFFSET 0.000000 0.000000 0.000000
		CHANNELS 3 Zrotation Yrotation Xrotation
		JOINT RightUpLeg
		{
			OFFSET -1.305520 -1.794630 0.839290
			CHANNELS 3 Zrotation Yrotation Xrotation
			JOINT RightLeg
			{
				OFFSET -2.542530 -6.985550 0.000000
				CHANNELS 3 Zrotation Yrotation Xrotation
				JOINT RightFoot
				{
					OFFSET -2.568260 -7.056230 0.000000
					CHANNELS 3 Zrotation Yrotation Xrotation
					JOINT RightToeBase
					{
						OFFSET -0.164730 -0.452590 2.363150
						CHANNELS 3 Zrotation Yrotation Xrotation
						End Site
						{
							OFFSET 0.000000 0.000000 0.000000
						}
					}
				}
			}
		}
	}
}
MOTION
Frames: 28
Frame Time: 0.008333
3.185252 17.042092 -1.870641 16.173192 -89.590011 -20.864078 -10.617695 2.880194 0.699851 2.706239 19.149126 -23.275507 -0.233588 2.215489 43.131670 1.848392 11.438516 10.846198 2.980801 -0.000000 -59.962199 10.173264 -2.087940 0.043437 8.915807 -14.091053 -0.017157 1.769440 -0.145855 16.787409 -1.488354 -5.577159 -11.736676 0.416100 0.000000 -54.810799
3.214180 17.048989 -1.922563 16.647246 -89.648786 -21.430196 -10.535257 2.707951 0.578088 2.598641 19.737248 -25.256298 -0.112311 2.348613 45.654014 2.007396 12.153058 12.647999 3.480599 0.000000 -58.427400 10.210283 -2.070551 0.079726 9.093572 -14.044449 0.132518 1.767964 -0.109880 16.455886 -1.483392 -5.584924 -11.619365 0.400000 -0.000000 -54.406401
3.244292 17.054877 -1.974213 17.446671 -89.712710 -22.328386 -10.420345 2.522280 0.435904 2.409850 20.386291 -27.277426 -0.008232 2.482502 48.161200 2.176679 13.013582 14.240576 4.038400 0.000001 -56.692600 10.266625 -2.046956 0.119473 9.264355 -13.949039 0.261339 1.759573 -0.079606 16.195368 -1.489351 -5.642006 -11.545539 0.391300 -0.000000 -53.924300
3.275173 17.059768 -2.025311 18.486253 -89.775273 -23.469887 -10.277141 2.327842 0.274081 2.132363 21.086008 -29.342209 0.080888 2.621887 50.656886 2.348250 13.990489 15.565077 4.638300 -0.000000 -54.925100 10.337265 -2.018545 0.165795 9.436277 -13.788319 0.368496 1.744076 -0.055326 16.007578 -1.510364 -5.767723 -11.523466 0.391701 0.000000 -53.348900
3.306556 17.063661 -2.075657 19.666680 -89.828529 -24.753984 -10.111352 2.129500 0.094587 1.759219 21.820898 -31.456405 0.159730 2.771190 53.146253 2.514653 15.038316 16.583937 5.252500 -0.000000 -53.263200 10.416362 -1.986403 0.220878 9.616437 -13.550685 0.455089 1.721540 -0.037063 15.890750 -1.549604 -5.976667 -11.557783 0.402200 0.000000 -52.648000
3.338195 17.066697 -2.125177 20.880909 -89.862720 -26.072927 -9.929346 1.932783 -0.099556 1.283603 22.569238 -33.625994 0.234226 2.934314 55.634980 2.668801 16.095676 17.274835 5.840300 -0.000000 -51.638601 10.498302 -1.950589 0.284630 9.807441 -13.234331 0.525227 1.692281 -0.024190 15.840033 -1.608981 -6.275546 -11.653807 0.424399 -0.000000 -51.731299
3.369535 17.069028 -2.173683 22.028362 -89.874830 -27.318551 -9.737831 1.742110 -0.301584 0.699490 23.306897 -35.862229 0.310744 3.112220 58.119528 2.807026 17.108321 17.669338 6.370801 -0.000000 -50.342400 10.576824 -1.912165 0.359684 10.015065 -12.835377 0.572315 1.656529 -0.016247 15.852455 -1.689587 -6.670548 -11.802380 0.458000 0.000000 -50.698700
3.400647 17.070704 -2.221400 22.995713 -89.852236 -28.383131 -9.542520 1.563331 -0.507463 0.002061 24.003564 -38.166986 0.395004 3.306764 60.603763 2.923864 18.007500 17.775919 6.799700 0.000000 -49.174400 10.648466 -1.868509 0.439610 10.231758 -12.376271 0.607672 1.615213 -0.011635 15.921268 -1.790002 -7.147023 -12.014925 0.505900 0.000000 -49.384900
3.431126 17.071887 -2.268336 23.730091 -89.793058 -29.208488 -9.347401 1.399740 -0.709467 -0.811315 24.631176 -40.546032 0.491691 3.515299 63.076451 3.018144 18.752410 17.663888 7.112400 0.000000 -48.272300 10.711147 -1.819837 0.522931 10.454153 -11.873426 0.625936 1.568827 -0.009720 16.041267 -1.907441 -7.692856 -12.274193 0.566700 -0.000000 -47.908200
3.460921 17.072649 -2.314649 24.198621 -89.691988 -29.763397 -9.154946 1.253822 -0.901972 -1.741142 25.162211 -42.998396 0.604178 3.734514 65.528329 3.089063 19.313922 17.395931 7.303700 -0.000000 -47.639000 10.765269 -1.765467 0.603700 10.672501 -11.357505 0.629496 1.518140 -0.009817 16.204781 -2.037085 -8.285274 -12.566045 0.639000 -0.000000 -46.351600
3.490090 17.072968 -2.360579 24.366750 -89.544171 -30.014306 -8.967729 1.126394 -1.079960 -2.782786 25.572065 -45.522126 0.734594 3.960743 67.951109 3.136688 19.678257 17.026853 7.378200 -0.000000 -47.128700 10.810561 -1.704175 0.675019 10.878512 -10.860511 0.620091 1.465270 -0.010692 16.410311 -2.174039 -8.893588 -12.900655 0.725200 0.000000 -44.561700
3.518760 17.072770 -2.406191 24.255002 -89.348939 -29.984484 -8.786533 1.015666 -1.239824 -3.928523 25.843596 -48.111793 0.883806 4.188825 70.333871 3.163251 19.855978 16.616146 7.357200 -0.000000 -46.698500 10.848453 -1.636174 0.730766 11.064831 -10.413322 0.597066 1.412486 -0.011924 16.656329 -2.312548 -9.486524 -13.281449 0.826900 0.000000 -42.472700
3.546998 17.072029 -2.451610 23.957949 -89.108994 -29.770945 -8.609059 0.917861 -1.380768 -5.166988 25.969950 -50.752761 1.050895 4.412253 72.660785 3.173615 19.884611 16.230311 7.277600 0.000000 -46.450100 10.884272 -1.564599 0.765384 11.220451 -10.047515 0.562978 1.359654 -0.014904 16.926371 -2.444740 -10.044670 -13.654928 0.932400 0.000000 -40.538300
3.575101 17.070551 -2.496876 23.517682 -88.828682 -29.420360 -8.434816 0.828232 -1.503135 -6.482940 25.950960 -53.433839 1.234197 4.626632 74.922595 3.172737 19.806383 15.907274 7.170301 -0.000000 -46.351200 10.918921 -1.490001 0.773933 11.342790 -9.782506 0.520734 1.309830 -0.019301 17.221543 -2.566134 -10.539552 -14.042171 1.044900 0.000000 -38.522699
3.603169 17.068221 -2.541891 23.000456 -88.516669 -29.000525 -8.262104 0.742333 -1.609991 -7.860209 25.797571 -56.141363 1.431370 4.829114 77.113196 3.165390 19.665379 15.658568 7.058600 -0.000000 -46.276800 10.954498 -1.415267 0.753538 11.429468 -9.631438 0.475113 1.263496 -0.026280 17.530619 -2.671601 -10.959813 -14.410028 1.155300 -0.000001 -36.686100
3.631592 17.064871 -2.586561 22.452786 -88.184931 -28.563306 -8.089226 0.655158 -1.704773 -9.281678 25.525997 -58.861941 1.639165 5.017172 79.223604 3.157669 19.514672 15.505283 6.970600 0.000000 -46.316101 10.991226 -1.341407 0.702921 11.483419 -9.593685 0.431437 1.222496 -0.036208 17.852003 -2.759234 -11.294694 -14.767186 1.263500 0.000001 -34.944900
3.660444 17.060373 -2.630735 21.916733 -87.847666 -28.151469 -7.914422 0.563468 -1.792580 -10.732087 25.159497 -61.585638 1.854685 5.190866 81.251584 3.153283 19.390216 15.431465 6.916199 0.000000 -46.357100 11.029182 -1.270846 0.623136 11.508936 -9.660520 0.396280 1.186409 -0.050391 18.175549 -2.827319 -11.549258 -15.080708 1.359900 0.000000 -33.536200
3.690134 17.054635 -2.674278 21.410650 -87.519966 -27.788165 -7.736272 0.464063 -1.877709 -12.196713 24.720781 -64.303327 2.074354 5.349946 83.189330 3.156332 19.327917 15.441713 6.910900 -0.000000 -46.523300 11.066734 -1.203827 0.516352 11.514826 -9.811392 0.377518 1.155861 -0.069151 18.497461 -2.877566 -11.730717 -15.355616 1.444200 0.000000 -32.383200
3.720730 17.047562 -2.716922 20.934667 -87.215908 -27.471448 -7.554334 0.355440 -1.963071 -13.664846 24.229311 -67.014892 2.295527 5.495817 85.034521 3.168516 19.344557 15.518289 6.956700 0.000000 -46.777800 11.101261 -1.141289 0.386448 11.511566 -10.022925 0.375865 1.130399 -0.093391 18.818311 -2.912104 -11.853402 -15.581610 1.513200 0.000000 -31.597400
3.752302 17.039159 -2.758553 20.494420 -86.947651 -27.205571 -7.368159 0.237085 -2.051237 -15.125638 23.700292 -69.717622 2.515512 5.629801 86.780884 3.189157 19.437106 15.638067 7.046300 0.000001 -47.030900 11.130442 -1.082679 0.237861 11.510718 -10.263687 0.397412 1.109835 -0.123012 19.136477 -2.935698 -11.935643 -15.770893 1.570400 -0.000000 -31.035000
3.784968 17.029437 -2.799026 20.080326 -86.724563 -26.979417 -7.177708 0.108512 -2.142507 -16.568602 23.141722 -72.412116 2.731331 5.752532 88.418790 3.217980 19.603010 15.798835 7.178800 0.000000 -47.323800 11.151995 -1.027609 0.074566 11.523293 -10.506754 0.443458 1.093030 -0.158475 19.451196 -2.952275 -11.998277 -15.917697 1.615100 0.000000 -30.749800
3.818699 17.018423 -2.838252 19.688263 -86.552129 -26.783757 -6.983252 -0.029877 -2.235333 -17.983966 22.551859 -75.099701 2.940220 5.864483 89.937207 3.252951 19.825251 15.990973 7.345400 0.000000 -47.607100 11.164535 -0.975029 -0.099466 11.558085 -10.726351 0.511563 1.078915 -0.199910 19.766562 -2.966272 -12.060435 -16.027722 1.649900 0.000000 -30.711400
3.853501 17.006085 -2.876088 19.294038 -86.432051 -26.593266 -6.786166 -0.178395 -2.326832 -19.356259 21.922824 -77.777125 3.138760 5.965330 91.321170 3.293044 20.093197 16.223852 7.545400 0.000000 -47.911200 11.166264 -0.923715 -0.282975 11.622412 -10.908147 0.603021 1.066583 -0.247182 20.080208 -2.980525 -12.136243 -16.098665 1.675100 0.000000 -30.923800
3.889206 16.992463 -2.912452 18.898232 -86.362631 -26.402894 -6.587487 -0.336409 -2.412931 -20.670698 21.239583 -80.440224 3.324052 6.054764 92.557041 3.335852 20.386107 16.487370 7.767999 -0.000000 -48.130700 11.157621 -0.871902 -0.474356 11.718547 -11.040626 0.711423 1.055591 -0.300018 20.401199 -2.997909 -12.233205 -16.148089 1.695800 -0.000000 -31.276600
3.925556 16.977565 -2.947282 18.502420 -86.338744 -26.210073 -6.388497 -0.503323 -2.489149 -21.908550 20.484792 -83.078230 3.492839 6.132015 93.629987 3.380242 20.693089 16.780216 8.009200 -0.000000 -48.229800 11.140285 -0.818258 -0.674216 11.842922 -11.126223 0.832270 1.045392 -0.358104 20.733672 -3.018710 -12.351113 -16.180610 1.713300 -0.000000 -31.749500
3.962354 16.961362 -2.980457 18.119167 -86.353947 -26.026220 -6.190224 -0.678581 -2.551528 -23.049070 19.642856 -85.676152 3.642106 6.196208 94.527095 3.425729 21.008933 17.095242 8.265400 0.000001 -48.181600 11.117539 -0.761563 -0.884262 11.986745 -11.175810 0.960334 1.035583 -0.421261 21.083203 -3.041602 -12.482607 -16.200065 1.728000 0.000000 -32.356200
3.999205 16.943885 -3.011933 17.779086 -86.401631 -25.880007 -5.993131 -0.861126 -2.596865 -24.072602 18.703212 -88.216819 3.769494 6.246733 95.239600 3.472309 21.332733 17.418430 8.532800 0.000001 -47.966000 11.093951 -0.700834 -1.105786 12.137066 -11.203445 1.089652 1.026478 -0.488909 21.457141 -3.064528 -12.612748 -16.221833 1.742700 -0.000000 -33.003100
4.035698 16.925136 -3.041490 17.500749 -86.474622 -25.792324 -5.798500 -1.050119 -2.623124 -24.957140 17.662475 -90.678447 3.873390 6.283270 95.763651 3.521097 21.672398 17.733760 8.810600 0.000000 -47.626299 11.073817 -0.636244 -1.342691 12.276682 -11.239030 1.220426 1.018677 -0.560453 21.854766 -3.082297 -12.716837 -16.246028 1.755800 -0.000000 -33.695600
